{
  "accessors": [
    {
      "bufferView": 1,
      "componentType": 5126,
      "count": 3492,
      "max": [
        61.0,
        -14.0,
        -6.0
      ],
      "min": [
        -67.0,
        -92.84590148925781,
        -49.27870178222656
      ],
      "type": "VEC3"
    },
    {
      "bufferView": 1,
      "byteOffset": 41904,
      "componentType": 5126,
      "count": 3492,
      "max": [
        1.0,
        1.0,
        1.0
      ],
      "min": [
        -1.0,
        -1.0,
        -1.0
      ],
      "type": "VEC3"
    },
    {
      "bufferView": 0,
      "componentType": 5125,
      "count": 12081,
      "type": "SCALAR"
    },
    {
      "bufferView": 1,
      "byteOffset": 83808,
      "componentType": 5126,
      "count": 13030,
      "max": [
        46.645999908447266,
        -0.0,
        -28.5
      ],
      "min": [
        -42.42599868774414,
        -74.24500274658203,
        -67.0
      ],
      "type": "VEC3"
    },
    {
      "bufferView": 1,
      "byteOffset": 240168,
      "componentType": 5126,
      "count": 13030,
      "max": [
        1.0,
        1.0,
        1.0
      ],
      "min": [
        -1.0,
        -1.0,
        -1.0
      ],
      "type": "VEC3"
    },
    {
      "bufferView": 0,
      "byteOffset": 48324,
      "componentType": 5125,
      "count": 55542,
      "type": "SCALAR"
    },
    {
      "bufferView": 1,
      "byteOffset": 396528,
      "componentType": 5126,
      "count": 1941,
      "max": [
        12.0,
        -78.00700378417969,
        -25.363000869750977
      ],
      "min": [
        -18.0,
        -94.33499908447266,
        -52.63600158691406
      ],
      "type": "VEC3"
    },
    {
      "bufferView": 1,
      "byteOffset": 419820,
      "componentType": 5126,
      "count": 1941,
      "max": [
        1.0,
        0.9945246577262878,
        1.0
      ],
      "min": [
        -1.0,
        -0.9999627470970154,
        -1.0
      ],
      "type": "VEC3"
    },
    {
      "bufferView": 0,
      "byteOffset": 270492,
      "componentType": 5125,
      "count": 7248,
      "type": "SCALAR"
    },
    {
      "bufferView": 1,
      "byteOffset": 443112,
      "componentType": 5126,
      "count": 2673,
      "max": [
        33.99639892578125,
        -13.0,
        -9.288000106811523
      ],
      "min": [
        -31.229799270629883,
        -73.05829620361328,
        -55.0
      ],
      "type": "VEC3"
    },
    {
      "bufferView": 1,
      "byteOffset": 475188,
      "componentType": 5126,
      "count": 2673,
      "max": [
        0.9999762773513794,
        0.9998748302459717,
        1.0
      ],
      "min": [
        -0.9999762177467346,
        -0.9997633099555969,
        -0.999996542930603
      ],
      "type": "VEC3"
    },
    {
      "bufferView": 0,
      "byteOffset": 299484,
      "componentType": 5125,
      "count": 11448,
      "type": "SCALAR"
    },
    {
      "bufferView": 1,
      "byteOffset": 507264,
      "componentType": 5126,
      "count": 1553,
      "max": [
        16.0,
        -0.0,
        -34.0
      ],
      "min": [
        -25.0,
        -27.613500595092773,
        -53.0
      ],
      "type": "VEC3"
    },
    {
      "bufferView": 1,
      "byteOffset": 525900,
      "componentType": 5126,
      "count": 1553,
      "max": [
        0.9999715089797974,
        1.0,
        0.9999626874923706
      ],
      "min": [
        -0.9999710917472839,
        -0.8598969578742981,
        -0.9999626874923706
      ],
      "type": "VEC3"
    },
    {
      "bufferView": 0,
      "byteOffset": 345276,
      "componentType": 5125,
      "count": 6510,
      "type": "SCALAR"
    },
    {
      "bufferView": 1,
      "byteOffset": 544536,
      "componentType": 5126,
      "count": 402,
      "max": [
        12.0,
        -71.00700378417969,
        -19.0
      ],
      "min": [
        -18.0,
        -96.31800079345703,
        -49.0
      ],
      "type": "VEC3"
    },
    {
      "bufferView": 1,
      "byteOffset": 549360,
      "componentType": 5126,
      "count": 402,
      "max": [
        0.8604094386100769,
        1.0,
        0.8607478737831116
      ],
      "min": [
        -0.8602874875068665,
        -1.0,
        -0.8696810007095337
      ],
      "type": "VEC3"
    },
    {
      "bufferView": 0,
      "byteOffset": 371316,
      "componentType": 5125,
      "count": 1125,
      "type": "SCALAR"
    }
  ],
  "asset": {
    "extras": {
      "author": "mcmckenne (https://sketchfab.com/mcmckenne)",
      "license": "CC-BY-4.0 (http://creativecommons.org/licenses/by/4.0/)",
      "source": "https://sketchfab.com/3d-models/dcd-304-3d-model-56c5689b173a4a3a95b7019f0b09fa0f",
      "title": "DCD 304 3D MODEL"
    },
    "generator": "Sketchfab-11.83.0",
    "version": "2.0"
  },
  "bufferViews": [
    {
      "buffer": 0,
      "byteLength": 375816,
      "name": "floatBufferViews",
      "target": 34963
    },
    {
      "buffer": 0,
      "byteLength": 554184,
      "byteOffset": 375816,
      "byteStride": 12,
      "name": "floatBufferViews",
      "target": 34962
    }
  ],
  "buffers": [
    {
      "byteLength": 930000,
      "uri": "scene.bin"
    }
  ],
  "materials": [
    {
      "doubleSided": true,
      "name": "color_16448250",
      "pbrMetallicRoughness": {
        "baseColorFactor": [
          0.980392,
          0.980392,
          0.980392,
          1.0
        ],
        "metallicFactor": 0.0
      }
    },
    {
      "doubleSided": true,
      "name": "color_16768282",
      "pbrMetallicRoughness": {
        "baseColorFactor": [
          1.0,
          0.866667,
          0.101961,
          1.0
        ],
        "metallicFactor": 0.0
      }
    },
    {
      "doubleSided": true,
      "name": "color_2829873",
      "pbrMetallicRoughness": {
        "baseColorFactor": [
          0.168627,
          0.180392,
          0.192157,
          1.0
        ],
        "metallicFactor": 0.0
      }
    },
    {
      "doubleSided": true,
      "name": "color_30377",
      "pbrMetallicRoughness": {
        "baseColorFactor": [
          0.0,
          0.462745,
          0.662745,
          1.0
        ],
        "metallicFactor": 0.0
      }
    },
    {
      "doubleSided": true,
      "name": "color_40919",
      "pbrMetallicRoughness": {
        "baseColorFactor": [
          0.0,
          0.623529,
          0.843137,
          1.0
        ],
        "metallicFactor": 0.0
      }
    },
    {
      "doubleSided": true,
      "name": "color_9444435",
      "pbrMetallicRoughness": {
        "baseColorFactor": [
          0.564706,
          0.109804,
          0.32549,
          1.0
        ],
        "metallicFactor": 0.0
      }
    }
  ],
  "meshes": [
    {
      "name": "Object_0",
      "primitives": [
        {
          "attributes": {
            "NORMAL": 1,
            "POSITION": 0
          },
          "indices": 2,
          "material": 0,
          "mode": 4
        }
      ]
    },
    {
      "name": "Object_1",
      "primitives": [
        {
          "attributes": {
            "NORMAL": 4,
            "POSITION": 3
          },
          "indices": 5,
          "material": 1,
          "mode": 4
        }
      ]
    },
    {
      "name": "Object_2",
      "primitives": [
        {
          "attributes": {
            "NORMAL": 7,
            "POSITION": 6
          },
          "indices": 8,
          "material": 2,
          "mode": 4
        }
      ]
    },
    {
      "name": "Object_3",
      "primitives": [
        {
          "attributes": {
            "NORMAL": 10,
            "POSITION": 9
          },
          "indices": 11,
          "material": 3,
          "mode": 4
        }
      ]
    },
    {
      "name": "Object_4",
      "primitives": [
        {
          "attributes": {
            "NORMAL": 13,
            "POSITION": 12
          },
          "indices": 14,
          "material": 4,
          "mode": 4
        }
      ]
    },
    {
      "name": "Object_5",
      "primitives": [
        {
          "attributes": {
            "NORMAL": 16,
            "POSITION": 15
          },
          "indices": 17,
          "material": 5,
          "mode": 4
        }
      ]
    }
  ],
  "nodes": [
    {
      "children": [
        1
      ],
      "matrix": [
        1.0,
        0.0,
        0.0,
        0.0,
        0.0,
        2.220446049250313e-16,
        -1.0,
        0.0,
        0.0,
        1.0,
        2.220446049250313e-16,
        0.0,
        0.0,
        0.0,
        0.0,
        1.0
      ],
      "name": "Sketchfab_model"
    },
    {
      "children": [
        2,
        3,
        4,
        5,
        6,
        7
      ],
      "name": "tinker.obj.cleaner.materialmerger.gles"
    },
    {
      "mesh": 0,
      "name": "Object_2"
    },
    {
      "mesh": 1,
      "name": "Object_3"
    },
    {
      "mesh": 2,
      "name": "Object_4"
    },
    {
      "mesh": 3,
      "name": "Object_5"
    },
    {
      "mesh": 4,
      "name": "Object_6"
    },
    {
      "mesh": 5,
      "name": "Object_7"
    }
  ],
  "scene": 0,
  "scenes": [
    {
      "name": "Sketchfab_Scene",
      "nodes": [
        0
      ]
    }
  ]
}
